<?xml version="1.0" encoding="utf-8"?>
<svg version="1.0" xmlns="http://www.w3.org/2000/svg" width="128.000000pt" height="128.000000pt" viewBox="0 0 128.000000 128.000000" preserveAspectRatio="xMidYMid meet" xmlns:bx="https://boxy-svg.com"><defs><bx:export><bx:file format="svg" units="pt" path="coffee.svg"/></bx:export></defs><g transform="translate(0.000000,128.000000) scale(0.100000,-0.100000)" fill="#000000" stroke="none"><path d="M524 1031 c-77 -13 -91 -23 -99 -78 -4 -30 -14 -54 -27 -64 -13 -10 -22 -32 -25 -62 -5 -44 -4 -47 26 -64 17 -10 31 -22 31 -28 0 -5 11 -106 24 -224 27 -237 30 -245 102 -261 54 -13 142 -11 183 3 61 22 68 41 91 272 14 148 25 213 34 220 8 6 22 15 32 21 34 20 15 116 -25 129 -13 4 -22 20 -27 53 -8 41 -14 49 -45 65 -42 20 -196 30 -275 18z m235 -47 c25 -5 33 -13 41 -43 5 -20 10 -39 10 -42 0 -12 -161 -20 -250 -13 -74 5 -90 9 -90 23 0 15 16 17 139 16 93 0 144 4 152 12 25 25 -3 33 -127 33 -76 0 -124 4 -124 10 0 11 197 14 249 4z m-124 -149 c17 0 76 4 133 8 l103 8 -3 -28 c-3 -26 -7 -29 -63 -36 -67 -9 -350 -3 -377 8 -18 7 -24 35 -11 49 4 3 48 3 97 -1 50 -4 105 -8 121 -8z m169 -121 c-16 -200 -40 -398 -50 -412 -18 -25 -195 -25 -220 0 -13 12 -21 59 -35 190 -10 95 -18 189 -19 208 l0 35 162 -1 c153 -2 163 -3 162 -20z" style="fill: rgb(203, 196, 108);"/></g></svg>