<?xml version="1.0" standalone="no"?>
<!DOCTYPE svg PUBLIC "-//W3C//DTD SVG 20010904//EN"
 "http://www.w3.org/TR/2001/REC-SVG-20010904/DTD/svg10.dtd">
<svg version="1.0" xmlns="http://www.w3.org/2000/svg"
 width="900.000000pt" height="933.000000pt" viewBox="0 0 900.000000 933.000000"
 preserveAspectRatio="xMidYMid meet">
<metadata>
Created by potrace 1.10, written by Peter Selinger 2001-2011
</metadata>
<g transform="translate(0.000000,933.000000) scale(0.100000,-0.100000)"
fill="#000000" stroke="none">
<path d="M3990 8995 c-55 -41 -70 -72 -70 -147 0 -60 3 -71 33 -109 43 -56
101 -77 166 -60 53 14 65 23 103 75 51 71 31 182 -45 240 -48 37 -138 37 -187
1z"/>
<path d="M4685 8693 c-43 -6 -105 -52 -139 -102 -26 -38 -29 -53 -29 -115 0
-48 5 -82 18 -106 72 -142 245 -174 346 -63 55 59 64 82 64 168 0 72 -3 86
-28 123 -49 75 -133 109 -232 95z"/>
<path d="M5356 8489 c-69 -28 -128 -73 -168 -127 -62 -87 -71 -117 -71 -232 0
-98 2 -110 33 -175 29 -61 56 -93 205 -240 205 -204 404 -418 466 -500 48 -63
160 -230 172 -255 4 -8 16 -28 27 -45 29 -45 138 -261 171 -340 69 -161 140
-418 173 -625 62 -387 41 -735 -68 -1130 -20 -73 -50 -162 -82 -238 -16 -41
-22 -123 -10 -160 4 -13 26 -36 48 -53 76 -54 177 -32 241 53 42 55 185 352
217 448 5 14 18 50 30 80 75 192 135 412 166 605 24 153 25 649 0 810 -36 239
-88 437 -166 630 -15 39 -38 95 -50 125 -56 139 -166 359 -245 488 -54 90
-231 324 -300 398 -5 6 -35 40 -65 75 -95 112 -293 309 -347 346 -112 77 -274
104 -377 62z"/>
<path d="M2630 8390 c-58 -4 -129 -13 -159 -19 -29 -6 -75 -11 -101 -11 -95 0
-212 -57 -272 -132 -72 -90 -98 -162 -98 -275 0 -135 54 -248 154 -323 111
-82 196 -97 390 -65 201 32 283 38 566 42 305 5 461 -5 655 -43 130 -25 286
-66 343 -90 18 -8 38 -14 45 -14 36 0 368 -148 467 -208 19 -12 44 -26 55 -31
30 -15 70 -49 65 -55 -3 -2 -115 -6 -250 -7 -204 -2 -253 0 -295 13 -441 143
-1055 167 -1540 62 -83 -18 -173 -40 -235 -58 -25 -8 -72 -21 -105 -31 -33
-10 -71 -22 -85 -27 -14 -5 -56 -20 -95 -33 -130 -44 -245 -91 -325 -133 -86
-46 -135 -74 -165 -93 -16 -10 -39 -23 -50 -29 -96 -51 -401 -273 -540 -394
-84 -72 -219 -209 -286 -289 -81 -96 -93 -127 -93 -237 0 -87 3 -100 33 -160
37 -73 69 -111 125 -147 109 -70 243 -69 357 3 51 31 71 50 121 117 70 93 242
262 378 373 117 94 361 266 410 287 8 4 31 17 50 28 79 48 227 118 375 178 44
18 95 39 113 47 18 8 39 14 47 14 8 0 29 6 47 14 31 13 73 25 216 60 85 21
235 44 335 51 101 8 113 -4 50 -49 -74 -51 -226 -220 -288 -319 -17 -26 -36
-47 -43 -47 -7 0 -30 11 -52 25 -59 37 -135 35 -231 -8 -73 -32 -205 -99 -244
-124 -11 -7 -27 -15 -35 -19 -8 -4 -33 -19 -55 -33 -22 -14 -45 -28 -51 -31
-6 -3 -64 -41 -129 -85 -305 -207 -608 -510 -828 -830 -34 -49 -66 -98 -72
-107 -5 -9 -29 -48 -51 -85 -234 -384 -381 -776 -468 -1248 -56 -307 -82 -669
-56 -783 28 -120 91 -197 206 -253 67 -32 73 -33 189 -33 116 0 122 1 190 35
86 42 183 134 215 204 22 47 23 67 31 365 12 430 19 490 95 783 37 139 47 173
60 205 8 18 14 39 14 47 0 8 6 29 14 47 8 18 21 51 29 73 57 151 152 354 217
460 16 28 33 57 37 65 4 8 40 65 81 125 120 178 257 333 427 486 65 58 224
179 235 179 14 0 13 -32 -4 -99 -8 -31 -19 -122 -26 -203 -24 -299 24 -582
139 -810 l34 -66 -29 -49 c-77 -130 -101 -198 -146 -398 -19 -88 -22 -129 -22
-345 -1 -249 4 -295 50 -505 38 -173 106 -386 150 -467 18 -33 18 -71 0 -128
-26 -82 -73 -259 -78 -295 -2 -12 -11 -20 -23 -20 -22 0 -64 78 -139 256 -46
108 -58 140 -90 227 -45 125 -82 279 -123 522 -26 155 -26 726 0 850 30 139
65 274 93 355 8 23 14 72 14 111 0 62 -4 76 -29 111 -37 51 -102 73 -153 53
-70 -28 -115 -86 -173 -225 -81 -196 -95 -234 -124 -325 -97 -312 -125 -516
-125 -900 0 -291 3 -328 50 -575 26 -135 85 -360 119 -455 75 -205 81 -219
169 -400 96 -197 121 -240 260 -447 132 -196 423 -512 667 -724 187 -162 188
-163 334 -163 118 -1 121 0 183 34 67 35 118 87 152 152 16 30 20 58 20 128 0
80 -4 97 -31 155 -33 70 -114 159 -187 204 -23 15 -75 58 -115 97 -59 57 -175
163 -280 256 -11 10 -17 24 -14 32 5 13 25 16 104 16 54 0 127 3 163 6 l65 6
80 -59 c84 -62 304 -213 310 -213 2 0 23 -13 47 -29 70 -46 271 -152 373 -196
80 -35 186 -76 242 -94 33 -12 72 -25 85 -30 22 -9 76 -23 206 -55 75 -19 190
-41 327 -63 157 -24 703 -24 890 1 248 33 495 84 583 122 18 8 39 14 47 14 8
0 29 6 47 14 18 8 69 29 113 47 139 57 184 88 242 164 52 69 65 120 61 231 -3
84 -8 108 -33 159 -32 66 -103 148 -148 172 -86 44 -201 58 -293 34 -49 -13
-246 -91 -296 -117 -14 -8 -33 -14 -42 -14 -8 0 -30 -6 -48 -14 -52 -22 -210
-68 -308 -90 -318 -71 -647 -93 -910 -60 -176 21 -190 24 -190 33 0 17 83 21
435 21 548 1 555 4 710 224 19 26 26 29 89 30 65 2 70 3 97 36 41 48 47 90 19
135 -28 46 -67 65 -128 65 -56 0 -62 7 -62 75 0 24 -5 56 -10 71 -18 45 -5 60
73 84 40 12 90 29 112 37 22 8 56 21 75 28 239 89 522 231 740 373 277 180
598 488 821 787 82 110 155 218 189 280 12 22 37 67 55 100 83 146 217 428
230 481 34 140 4 254 -87 340 -118 113 -269 129 -411 46 -65 -38 -97 -80 -141
-188 -15 -38 -34 -82 -42 -99 -7 -16 -25 -57 -39 -90 -48 -107 -114 -234 -156
-300 -10 -16 -22 -37 -26 -45 -13 -28 -67 -105 -157 -225 -84 -111 -328 -369
-451 -475 -230 -198 -528 -379 -782 -474 -24 -9 -61 -24 -84 -33 -28 -12 -45
-14 -56 -7 -19 12 -62 136 -63 181 0 32 3 34 108 84 126 59 222 108 311 157
35 19 74 40 85 46 297 161 775 646 936 951 6 11 19 34 29 50 50 77 137 248
179 350 18 44 39 91 46 105 15 31 99 294 120 375 70 278 100 534 101 870 0
305 -12 353 -111 446 -67 62 -134 89 -223 89 -101 0 -183 -34 -247 -102 -87
-92 -109 -165 -100 -327 17 -325 18 -414 7 -561 -14 -180 -48 -380 -87 -510
-31 -105 -54 -178 -74 -230 -12 -30 -25 -68 -30 -83 -31 -99 -185 -378 -301
-544 -193 -275 -553 -627 -791 -771 l-37 -23 -15 23 c-8 13 -17 37 -21 53 -3
17 -12 53 -20 80 -8 28 -20 77 -28 110 -8 33 -20 80 -26 105 -20 77 -33 182
-26 207 3 14 15 34 27 46 97 101 224 288 290 427 73 154 88 200 155 470 26
108 26 510 0 620 -44 186 -88 333 -137 460 -12 30 -24 64 -27 75 -45 171 -103
298 -244 535 -164 275 -243 380 -436 575 -215 219 -341 320 -608 491 -46 29
-69 42 -85 51 -8 4 -46 26 -85 48 -83 50 -378 195 -395 195 -6 0 -21 5 -33 12
-27 15 -65 29 -192 72 -194 64 -343 99 -600 141 -117 19 -577 28 -745 15z
m2098 -1696 c353 -81 600 -219 770 -428 115 -142 167 -235 237 -426 66 -180
92 -456 60 -632 -24 -125 -70 -290 -94 -336 -5 -9 -19 -37 -31 -62 -12 -25
-30 -58 -41 -75 -10 -16 -22 -37 -26 -45 -29 -63 -169 -215 -280 -303 -46 -36
-73 -65 -73 -77 0 -19 9 -62 35 -170 8 -30 21 -86 30 -125 9 -38 23 -93 31
-121 8 -28 14 -59 14 -69 0 -10 6 -41 14 -69 15 -51 35 -131 61 -236 20 -82
45 -179 60 -235 8 -27 21 -79 31 -115 9 -36 23 -90 31 -120 8 -30 20 -77 27
-105 8 -27 20 -77 29 -110 18 -68 40 -158 61 -242 8 -32 21 -85 30 -118 8 -33
22 -87 30 -120 8 -33 16 -78 18 -100 l3 -40 -1249 -3 c-688 -1 -1254 2 -1258
6 -5 5 -4 21 1 38 4 16 16 63 25 104 10 41 24 102 32 135 31 120 43 171 59
240 9 39 23 97 31 130 23 88 44 173 60 238 8 31 20 83 28 115 18 73 40 160 60
240 9 34 23 90 32 125 8 34 22 89 31 122 8 33 21 84 29 112 14 51 27 101 58
215 8 29 21 78 30 108 8 30 18 80 22 111 l6 56 -63 49 c-209 158 -349 348
-442 599 -42 112 -77 312 -77 436 0 130 39 336 88 464 129 340 325 564 622
714 139 70 294 117 465 141 84 12 303 3 383 -16z"/>
<path d="M6663 8153 c-27 -9 -54 -30 -75 -56 -31 -38 -33 -46 -33 -117 0 -68
3 -81 27 -113 48 -62 82 -79 153 -80 53 -1 70 4 104 26 100 66 109 220 19 304
-26 25 -99 53 -132 52 -11 0 -40 -7 -63 -16z"/>
<path d="M1575 7682 c-65 -38 -77 -49 -113 -102 -36 -53 -37 -58 -37 -145 0
-84 2 -93 30 -135 66 -97 177 -146 278 -121 88 22 151 71 190 146 27 53 28
168 1 217 -30 53 -85 108 -136 134 -59 30 -166 33 -213 6z"/>
<path d="M7129 7502 c-92 -34 -137 -84 -159 -179 -23 -98 22 -202 112 -260 38
-24 53 -27 123 -28 74 0 84 3 126 32 26 18 60 54 75 80 25 42 28 58 28 128 0
69 -3 86 -26 120 -33 52 -80 87 -142 108 -60 21 -78 20 -137 -1z"/>
<path d="M932 7043 c-94 -33 -134 -154 -76 -230 30 -40 91 -73 134 -73 58 0
123 44 146 99 18 43 18 79 0 122 -19 44 -42 65 -95 84 -52 18 -54 18 -109 -2z"/>
<path d="M8304 5693 c-47 -6 -111 -66 -125 -116 -16 -59 -6 -139 22 -177 37
-50 81 -70 153 -70 54 0 69 4 104 30 46 33 82 102 82 157 0 80 -79 167 -160
176 -25 2 -59 3 -76 0z"/>
<path d="M630 5371 c-43 -23 -83 -62 -113 -110 -30 -49 -32 -181 -3 -226 57
-90 116 -125 211 -125 80 0 127 21 181 83 108 122 70 301 -78 378 -50 25 -150
25 -198 0z"/>
<path d="M338 4609 c-92 -75 -65 -218 47 -249 39 -11 51 -10 90 4 53 21 92 63
101 111 9 51 -3 84 -45 127 -36 35 -43 38 -98 38 -50 0 -63 -4 -95 -31z"/>
<path d="M8165 3265 c-41 -18 -69 -51 -90 -107 -17 -46 -17 -50 -1 -93 10 -26
33 -58 54 -75 31 -26 45 -30 95 -30 67 0 96 16 138 74 34 47 39 117 12 164
-40 69 -134 100 -208 67z"/>
<path d="M7520 2893 c-190 -36 -305 -146 -340 -324 -21 -105 4 -203 75 -296
59 -78 115 -112 229 -139 73 -17 111 -15 202 12 101 29 190 112 239 224 27 60
26 216 -2 275 -44 94 -99 156 -183 206 -50 30 -167 52 -220 42z"/>
<path d="M1661 2869 c-19 -4 -45 -19 -59 -33 -22 -21 -26 -35 -26 -81 -1 -53
2 -59 36 -91 32 -29 45 -34 88 -34 41 0 55 5 85 31 32 28 35 36 35 85 0 45 -5
59 -30 88 -32 36 -71 47 -129 35z"/>
<path d="M6783 2450 c-111 -68 -64 -241 66 -240 52 1 88 25 115 77 22 43 20
79 -5 120 -39 62 -114 81 -176 43z"/>
<path d="M1642 2217 c-46 -17 -98 -61 -129 -110 -24 -37 -27 -52 -28 -128 0
-77 3 -90 28 -127 55 -84 165 -125 265 -98 84 23 141 72 174 151 22 52 22 99
1 159 -45 124 -191 196 -311 153z"/>
<path d="M2145 1497 c-59 -18 -82 -33 -115 -79 -27 -37 -30 -49 -30 -115 0
-60 4 -80 24 -112 52 -82 115 -110 218 -96 44 6 58 14 99 56 39 40 48 57 54
98 12 89 -2 137 -55 190 -27 27 -61 51 -78 54 -16 3 -40 8 -53 11 -13 2 -42
-1 -64 -7z"/>
<path d="M4330 1079 c-92 -41 -140 -117 -140 -221 0 -108 60 -188 168 -223 49
-16 54 -16 109 1 221 70 234 359 20 449 -49 20 -103 19 -157 -6z"/>
<path d="M5186 833 c-34 -5 -92 -40 -124 -75 -33 -37 -65 -134 -57 -177 11
-59 54 -139 89 -166 102 -78 248 -71 335 16 41 41 71 110 71 162 0 80 -63 178
-139 216 -38 20 -127 32 -175 24z"/>
</g>
</svg>
