<?xml version="1.0" encoding="UTF-8"?>
<svg version="1.1" xmlns="http://www.w3.org/2000/svg" width="145" height="173">
<path d="M0 0 C1.28874023 -0.01029488 1.28874023 -0.01029488 2.60351562 -0.02079773 C5.43709954 -0.03906475 8.27012973 -0.03522835 11.10375977 -0.02954102 C13.07764363 -0.03410291 15.05152591 -0.0394085 17.02540588 -0.04542542 C21.16039486 -0.05435636 25.2951907 -0.05193359 29.43017578 -0.04199219 C34.72418925 -0.03050335 40.01753562 -0.0507129 45.31146145 -0.07990932 C49.3873161 -0.09827224 53.46301092 -0.09797865 57.53889656 -0.0922718 C59.49049884 -0.0921186 61.44211196 -0.09816245 63.39367485 -0.11056328 C66.12485239 -0.12547291 68.854798 -0.11479656 71.5859375 -0.09765625 C72.79012077 -0.1121582 72.79012077 -0.1121582 74.01863098 -0.12695312 C79.23363772 -0.05856223 82.27631337 0.87650137 86.35766602 4.40405273 C90.51843223 9.02168336 89.77953184 14.66782976 89.74584961 20.54077148 C89.75110657 21.66488434 89.75636353 22.78899719 89.76177979 23.94717407 C89.77498104 27.6621084 89.76624086 31.37661407 89.75610352 35.09155273 C89.7581242 37.67317792 89.7610356 40.25480255 89.76480103 42.83642578 C89.76922457 48.24672405 89.76307856 53.65686128 89.7487793 59.06713867 C89.73245349 65.31622136 89.73774232 71.56501038 89.75425851 77.81408596 C89.76952827 83.83318059 89.76789249 89.8521319 89.75911331 95.87124634 C89.75711105 98.42933188 89.75957148 100.98742491 89.76655197 103.54550171 C89.77416454 107.1196482 89.76256405 110.69322961 89.74584961 114.26733398 C89.7519223 115.32618805 89.757995 116.38504211 89.76425171 117.47598267 C89.68417062 126.71228811 89.68417062 126.71228811 86.35766602 130.40405273 C81.49370353 134.60461472 77.73425485 134.98360398 71.60180664 134.92163086 C70.74250046 134.92864014 69.88319427 134.93564941 68.99784851 134.94287109 C66.1695381 134.96041443 63.34223584 134.94884147 60.51391602 134.93530273 C58.54146127 134.9379987 56.56900782 134.941882 54.59655762 134.94689941 C50.46748166 134.9527895 46.33875238 134.9442472 42.2097168 134.92553711 C36.92354994 134.90274796 31.63819548 134.91587365 26.35205841 134.93982697 C22.28047593 134.95429811 18.20908528 134.94967289 14.13749695 134.9393158 C12.18869429 134.93665216 10.23987407 134.93990549 8.29109192 134.94923401 C5.5647688 134.95942124 2.83975154 134.94386842 0.11352539 134.92163086 C-0.68769241 134.92972778 -1.48891022 134.93782471 -2.31440735 134.94616699 C-7.52209271 134.8676847 -10.56604006 133.92437703 -14.64233398 130.40405273 C-18.79637907 125.78918192 -18.07137482 120.1520521 -18.04638672 114.28320312 C-18.05324997 113.16069656 -18.06011322 112.03819 -18.06718445 110.88166809 C-18.08548396 107.17155301 -18.08161028 103.46185951 -18.07592773 99.75170898 C-18.08048798 97.17247886 -18.08579309 94.59324996 -18.09181213 92.01402283 C-18.10074946 86.60792524 -18.09854676 81.20198948 -18.08837891 75.79589844 C-18.07689951 69.55472628 -18.09097203 63.31398393 -18.11777538 57.07286841 C-18.14263141 51.05910379 -18.14510578 45.0455598 -18.13865852 39.03173637 C-18.1385051 36.47726158 -18.14456694 33.9227786 -18.15695 31.36833382 C-18.1718244 27.79666279 -18.16120763 24.22593825 -18.14404297 20.65429688 C-18.15371094 19.59903809 -18.16337891 18.5437793 -18.17333984 17.45654297 C-18.11470761 11.63117637 -17.75957871 7.88808385 -13.64233398 3.40405273 C-9.45366404 -0.10205128 -5.23975238 -0.02930807 0 0 Z M-3.64233398 14.40405273 C-3.64233398 49.38405273 -3.64233398 84.36405273 -3.64233398 120.40405273 C22.42766602 120.40405273 48.49766602 120.40405273 75.35766602 120.40405273 C75.35766602 85.42405273 75.35766602 50.44405273 75.35766602 14.40405273 C49.28766602 14.40405273 23.21766602 14.40405273 -3.64233398 14.40405273 Z " fill="#506175" transform="translate(52.642333984375,36.595947265625)"/>
<path d="M0 0 C0.87052002 -0.00525696 1.74104004 -0.01051392 2.63793945 -0.01593018 C5.50881007 -0.02910888 8.37912396 -0.02039961 11.25 -0.01025391 C13.248699 -0.01227525 15.24739728 -0.0151872 17.24609375 -0.01895142 C21.43236319 -0.02337188 25.61844042 -0.01695256 29.8046875 -0.00292969 C35.16820576 0.01416195 40.53127365 0.0043193 45.89477539 -0.01364708 C50.02119332 -0.02449234 54.14750463 -0.02103514 58.27392578 -0.0132637 C60.25146539 -0.01126376 62.2290147 -0.01371376 64.20654297 -0.02070236 C66.97128914 -0.02832897 69.73530794 -0.01669562 72.5 0 C73.31573486 -0.00607269 74.13146973 -0.01214539 74.97192383 -0.0184021 C80.96186721 0.04854245 84.24330018 1.38148377 88.5625 5.70068359 C91.69580411 10.73180198 91.00495012 17.74306108 90.25 23.38818359 C88.97265625 25.79052734 88.97265625 25.79052734 87.25 27.38818359 C85.3125 27.88427734 85.3125 27.88427734 83.25 27.82568359 C82.2290625 27.82375 82.2290625 27.82375 81.1875 27.82177734 C79.25 27.38818359 79.25 27.38818359 76.25 24.38818359 C76.25 21.08818359 76.25 17.78818359 76.25 14.38818359 C50.18 14.38818359 24.11 14.38818359 -2.75 14.38818359 C-2.75 49.36818359 -2.75 84.34818359 -2.75 120.38818359 C0.55 120.38818359 3.85 120.38818359 7.25 120.38818359 C10.25 123.38818359 10.25 123.38818359 10.6875 126.82568359 C10.25 130.38818359 10.25 130.38818359 8.62109375 132.58349609 C4.15336002 135.98397877 -1.39445514 134.93507609 -6.75 134.38818359 C-11.56710287 132.78248264 -14.12054393 130.71820333 -16.75 126.38818359 C-17.34685478 122.61737228 -17.28590111 118.87879755 -17.25170898 115.06787109 C-17.25711197 113.9242511 -17.26251495 112.7806311 -17.26808167 111.60235596 C-17.28058811 107.82236853 -17.26406406 104.04313986 -17.24609375 100.26318359 C-17.24624869 97.63671834 -17.24773687 95.01025286 -17.25050354 92.38378906 C-17.25320351 86.87930444 -17.23974868 81.37503814 -17.21655273 75.87060547 C-17.18994413 69.51245044 -17.18819658 63.15466037 -17.1999411 56.79646873 C-17.21073145 50.67271026 -17.20442061 44.54910457 -17.19038582 38.425354 C-17.1858671 35.82261539 -17.18553817 33.21986606 -17.18945122 30.61712646 C-17.19235904 26.98069194 -17.17587576 23.34485513 -17.15405273 19.70849609 C-17.15855438 18.63094055 -17.16305603 17.55338501 -17.16769409 16.44317627 C-17.07416454 7.0708206 -17.07416454 7.0708206 -13.75 3.38818359 C-9.4446753 -0.20840501 -5.34853765 -0.03981689 0 0 Z " fill="#506175" transform="translate(18.75,3.61181640625)"/>
</svg>
